<svg width="20" height="20" viewBox="0 0 20 20" fill="none" xmlns="http://www.w3.org/2000/svg">
    <path fill-rule="evenodd" clip-rule="evenodd" d="M19.219 18.716a.387.387 0 0 1-.39.383h-1.564a1.88 1.88 0 0 0 .391-1.148v-1.853h1.172c.216 0 .39.171.39.383v2.235zM3.516 19.1a1.162 1.162 0 0 1-1.172-1.148v-.46h.625c.689 0 1.25-.55 1.25-1.225a1.24 1.24 0 0 0-1.25-1.225h-.625v-1.685h.625c.689 0 1.25-.55 1.25-1.225a1.24 1.24 0 0 0-1.25-1.225h-.625V9.22h.625c.689 0 1.25-.55 1.25-1.225a1.24 1.24 0 0 0-1.25-1.225h-.625V5.086h.625c.689 0 1.25-.55 1.25-1.225a1.24 1.24 0 0 0-1.25-1.225h-.625v-.46c0-.633.525-1.148 1.172-1.148h12.187c.646 0 1.172.515 1.172 1.148v15.775c0 .633-.526 1.148-1.172 1.148H3.516zM.78 16.266c0-.253.21-.46.469-.46h1.719c.258 0 .469.207.469.46 0 .254-.21.46-.47.46H1.25a.465.465 0 0 1-.469-.46zm0-4.135c0-.253.21-.46.469-.46h1.719c.258 0 .469.207.469.46s-.21.46-.47.46H1.25a.465.465 0 0 1-.469-.46zm0-4.135c0-.253.21-.46.469-.46h1.719c.258 0 .469.207.469.46s-.21.46-.47.46H1.25a.465.465 0 0 1-.469-.46zm0-4.135c0-.253.21-.46.469-.46h1.719c.258 0 .469.207.469.46s-.21.46-.47.46H1.25a.465.465 0 0 1-.469-.46zm18.438 8.852v2.236a.387.387 0 0 1-.39.383h-1.173V12.33h1.172c.216 0 .39.172.39.383zm0-3.767v2.236a.387.387 0 0 1-.39.382h-1.173V8.563h1.172c.216 0 .39.171.39.383zm0-3.768v2.236a.387.387 0 0 1-.39.383h-1.173V4.795h1.172c.216 0 .39.172.39.383zm0-3.767v2.236a.387.387 0 0 1-.39.382h-1.173V2.176c0-.43-.146-.828-.391-1.148h1.563c.216 0 .39.171.39.383zm.781 0c0-.634-.526-1.149-1.172-1.149H3.516c-1.077 0-1.954.859-1.954 1.914v.46H1.25C.56 2.636 0 3.186 0 3.86c0 .676.56 1.225 1.25 1.225h.313v1.685H1.25C.56 6.77 0 7.32 0 7.996c0 .676.56 1.225 1.25 1.225h.313v1.685H1.25c-.69 0-1.25.55-1.25 1.225 0 .676.56 1.225 1.25 1.225h.313v1.685H1.25c-.69 0-1.25.55-1.25 1.225 0 .676.56 1.225 1.25 1.225h.313v.46c0 1.055.876 1.914 1.953 1.914h15.312c.646 0 1.172-.515 1.172-1.148V16.48c0-.294-.113-.563-.3-.766.187-.204.3-.472.3-.766v-2.236c0-.294-.113-.562-.3-.766.187-.203.3-.471.3-.765V8.945c0-.294-.113-.563-.3-.766.187-.204.3-.472.3-.766V5.178c0-.294-.113-.562-.3-.766.187-.203.3-.471.3-.765V1.41z" fill="#000"/>
    <path fill-rule="evenodd" clip-rule="evenodd" d="M8.828 8.226c0-.634.526-1.149 1.172-1.149.646 0 1.172.515 1.172 1.149v.306c0 .633-.526 1.149-1.172 1.149a1.162 1.162 0 0 1-1.172-1.149v-.306zm2.609 1.601c.32-.34.516-.796.516-1.295v-.306c0-1.056-.876-1.915-1.953-1.915s-1.953.86-1.953 1.915v.306c0 .5.196.954.517 1.295-1.295.403-2.236 1.592-2.236 2.993v.613c0 .211.175.383.39.383h1.53c.215 0 .39-.172.39-.383a.387.387 0 0 0-.39-.383H7.108v-.23c0-1.309 1.087-2.374 2.422-2.374h.078v.62c0 .21.175.382.391.382.216 0 .39-.171.39-.383v-.619h.079c1.335 0 2.422 1.065 2.422 2.374v.23h-1.128a.387.387 0 0 0-.39.383c0 .211.174.383.39.383h1.518c.216 0 .39-.172.39-.383v-.613c0-1.4-.94-2.59-2.234-2.993z" fill="#000"/>
    <path fill-rule="evenodd" clip-rule="evenodd" d="M10.005 13.05a.4.4 0 0 0-.276.112.382.382 0 0 0-.114.27c0 .102.04.2.114.272a.4.4 0 0 0 .552 0 .382.382 0 0 0 .115-.271c0-.1-.042-.2-.115-.27a.398.398 0 0 0-.276-.113z" fill="#000"/>
</svg>
