<svg width="156" height="200" viewBox="0 0 156 200" fill="none" xmlns="http://www.w3.org/2000/svg">
<mask id="mask0_0_5207" style="mask-type:alpha" maskUnits="userSpaceOnUse" x="8" y="153" width="139" height="47">
<path fill-rule="evenodd" clip-rule="evenodd" d="M8.69513 153.965H146.601V200H8.69513V153.965Z" fill="white"/>
</mask>
<g mask="url(#mask0_0_5207)">
<path fill-rule="evenodd" clip-rule="evenodd" d="M146.601 176.98C146.601 183.843 139.195 189.727 125.188 193.988C112.446 197.863 95.5666 200 77.6483 200C59.7303 200 42.8514 197.863 30.1092 193.988C16.1014 189.727 8.69513 183.843 8.69513 176.98C8.69513 170.117 16.1014 164.238 30.1092 159.977C34.0432 158.781 38.3748 157.75 43.0076 156.895C53.3748 154.984 65.2654 153.965 77.6483 153.965C90.0315 153.965 101.918 154.984 112.285 156.895C116.918 157.746 121.25 158.781 125.188 159.977C139.195 164.238 146.601 170.117 146.601 176.98Z" fill="#A4CE39"/>
</g>
<path fill-rule="evenodd" clip-rule="evenodd" d="M112.285 156.895L86.6211 182.535C84.2265 184.93 81.039 186.25 77.6484 186.25C74.2578 186.25 71.0703 184.93 68.6718 182.535L43.0078 156.895C53.375 154.984 65.2656 153.965 77.6484 153.965C90.0312 153.965 101.918 154.984 112.285 156.895Z" fill="#68C044"/>
<mask id="mask1_0_5207" style="mask-type:alpha" maskUnits="userSpaceOnUse" x="0" y="0" width="156" height="177">
<path fill-rule="evenodd" clip-rule="evenodd" d="M9.15527e-05 0H155.297V176.484H9.15527e-05V0Z" fill="white"/>
</mask>
<g mask="url(#mask1_0_5207)">
<path fill-rule="evenodd" clip-rule="evenodd" d="M155.297 77.5781C155.297 93.7305 150.375 109.215 141.063 122.355C132.086 135.023 119.719 144.609 105.266 150.102L79.7188 175.629C79.1485 176.199 78.3985 176.484 77.6485 176.484C76.8985 176.484 76.1485 176.199 75.5782 175.629L50.0313 150.105C35.5782 144.609 23.211 135.023 14.2345 122.355C4.92197 109.215 9.15527e-05 93.7305 9.15527e-05 77.5781C9.15527e-05 36.8789 31.5313 3.39844 71.4727 0.246094C73.5118 0.0820312 75.5704 0 77.6485 0C120.465 0 155.297 34.8008 155.297 77.5781Z" fill="#ED2061"/>
</g>
<mask id="mask2_0_5207" style="mask-type:alpha" maskUnits="userSpaceOnUse" x="71" y="0" width="85" height="176">
<path fill-rule="evenodd" clip-rule="evenodd" d="M71.4727 0H155.297V175.629H71.4727V0Z" fill="white"/>
</mask>
<g mask="url(#mask2_0_5207)">
<path fill-rule="evenodd" clip-rule="evenodd" d="M155.297 77.5781C155.297 93.7305 150.375 109.215 141.063 122.355C132.086 135.023 119.719 144.609 105.266 150.102L79.7188 175.629L92.9141 150.102C107.363 144.609 119.731 135.023 128.707 122.355C138.02 109.215 142.941 93.7305 142.941 77.5781C142.941 36.8789 111.41 3.39844 71.4727 0.246094C73.5118 0.0820312 75.5704 0 77.6485 0C120.465 0 155.297 34.8008 155.297 77.5781Z" fill="#C71E54"/>
</g>
<path fill-rule="evenodd" clip-rule="evenodd" d="M142.942 77.5781C142.942 113.547 113.652 142.812 77.6486 142.812C75.6759 142.812 73.7189 142.723 71.7892 142.555C38.5197 139.582 12.3556 111.574 12.3556 77.5781C12.3556 43.5781 38.5197 15.5742 71.7892 12.6016C73.7189 12.4336 75.6759 12.3438 77.6486 12.3438C113.652 12.3438 142.942 41.6055 142.942 77.5781Z" fill="#EEF0F5"/>
<path fill-rule="evenodd" clip-rule="evenodd" d="M142.942 77.5781C142.942 113.547 113.652 142.812 77.6486 142.812C75.6759 142.812 73.7189 142.723 71.7892 142.555C105.059 139.582 131.223 111.574 131.223 77.5781C131.223 43.5781 105.059 15.5742 71.7892 12.6016C73.7189 12.4336 75.6759 12.3438 77.6486 12.3438C113.652 12.3438 142.942 41.6055 142.942 77.5781Z" fill="#DAE1EA"/>
<path fill-rule="evenodd" clip-rule="evenodd" d="M109.414 66.4037L79.4536 42.9662C78.3931 42.1369 76.904 42.1369 75.8435 42.9662L45.8829 66.4037C45.1728 66.9592 44.7579 67.8104 44.7579 68.7111V105.585C44.7579 107.204 46.07 108.515 47.6876 108.515H107.609C109.227 108.515 110.539 107.204 110.539 105.585V68.7111C110.539 67.8104 110.124 66.9592 109.414 66.4037Z" fill="#F79E60"/>
<path fill-rule="evenodd" clip-rule="evenodd" d="M117.421 69.1514L79.4537 39.4506C78.3931 38.6213 76.9037 38.6213 75.8435 39.4506L37.8763 69.1514C36.6017 70.1482 36.3767 71.9896 37.374 73.2639C38.3701 74.5377 40.2119 74.7639 41.4861 73.7662L77.6486 45.4775L113.811 73.7662C114.347 74.1854 114.983 74.3885 115.614 74.3885C116.484 74.3885 117.346 74.0025 117.923 73.2639C118.92 71.9893 118.695 70.1479 117.421 69.1514Z" fill="#56788B"/>
<path fill-rule="evenodd" clip-rule="evenodd" d="M63.9766 76.8535C62.3586 76.8535 61.0469 78.1648 61.0469 79.7832V91.6406C61.0469 93.259 62.3586 94.5703 63.9766 94.5703C65.5945 94.5703 66.9062 93.259 66.9062 91.6406V79.7836C66.9062 78.1652 65.5945 76.8535 63.9766 76.8535Z" fill="#FBDF63"/>
<path fill-rule="evenodd" clip-rule="evenodd" d="M77.6484 76.8535C76.0305 76.8535 74.7188 78.1648 74.7188 79.7832V91.6406C74.7188 93.259 76.0305 94.5703 77.6484 94.5703C79.2664 94.5703 80.5781 93.259 80.5781 91.6406V79.7836C80.5781 78.1652 79.2664 76.8535 77.6484 76.8535Z" fill="#FBDF63"/>
<path fill-rule="evenodd" clip-rule="evenodd" d="M91.3203 76.8535C89.7023 76.8535 88.3906 78.1648 88.3906 79.7832V91.6406C88.3906 93.259 89.7023 94.5703 91.3203 94.5703C92.9383 94.5703 94.25 93.259 94.25 91.6406V79.7836C94.25 78.1652 92.9383 76.8535 91.3203 76.8535Z" fill="#FBDF63"/>
<path fill-rule="evenodd" clip-rule="evenodd" d="M77.6484 59.186C76.0305 59.186 74.7188 60.4974 74.7188 62.1157V66.4208C74.7188 68.0392 76.0305 69.3505 77.6484 69.3505C79.2664 69.3505 80.5781 68.0392 80.5781 66.4208V62.1157C80.5781 60.4974 79.2664 59.186 77.6484 59.186Z" fill="#FBDF63"/>
</svg>
