<svg width="24" height="27" viewBox="0 0 24 27" fill="none" xmlns="http://www.w3.org/2000/svg">
<mask id="mask0_0_1868" style="mask-type:alpha" maskUnits="userSpaceOnUse" x="0" y="0" width="24" height="27">
<path fill-rule="evenodd" clip-rule="evenodd" d="M0 0H24V27H0V0Z" fill="white"/>
</mask>
<g mask="url(#mask0_0_1868)">
<path fill-rule="evenodd" clip-rule="evenodd" d="M20.486 25.527L19.4154 7.11465H21.4634L22.5343 25.527H20.486ZM1.46067 25.5227L2.53206 7.11736H5.77931L5.77798 7.83512C5.77666 8.12667 5.77534 8.41849 5.78169 8.71005C5.79201 9.15986 6.08447 9.47015 6.49577 9.47015C6.50133 9.47015 6.50715 9.46988 6.51297 9.46988C6.91607 9.46119 7.2027 9.14819 7.20932 8.70815C7.21567 8.30909 7.21409 7.90977 7.21303 7.50366L7.21197 7.11573H13.3089L13.3073 8.06586C13.3057 8.2833 13.3039 8.50048 13.3118 8.71765C13.3285 9.17968 13.6265 9.48562 14.0495 9.46933C14.4547 9.45739 14.7318 9.14901 14.7384 8.7019C14.7434 8.36827 14.7426 8.03464 14.7418 7.70128L14.7413 7.11383H17.988L19.06 25.5227H1.46067ZM8.34529 2.15878C8.93444 1.67313 9.61756 1.43913 10.3793 1.45895C10.4063 1.45976 10.433 1.46193 10.4613 1.46519C9.29254 2.72343 9.18773 4.25775 9.27084 5.6281H7.23049C7.12516 4.37339 7.20826 3.09615 8.34529 2.15878ZM11.8548 2.12648C11.9731 2.02658 12.0247 2.02685 12.1444 2.12946C12.8807 2.76116 13.2589 3.51312 13.301 4.4285C13.3145 4.72711 13.3113 5.0222 13.3076 5.33492C13.3065 5.43211 13.3052 5.52956 13.3047 5.62783H10.7125C10.5503 3.96511 10.8851 2.94494 11.8548 2.12648ZM23.9341 25.0221C23.9212 24.7832 23.9085 24.5443 23.8942 24.3057L23.67 20.5161C23.5631 18.7116 23.4561 16.9069 23.35 15.1025L22.8447 6.44874C22.8111 5.87812 22.5647 5.64521 21.9944 5.64466L18.3752 5.64249C18.3213 5.64222 18.267 5.63869 18.2069 5.63489L18.2074 5.37103C18.2082 5.09603 18.209 4.82755 18.2059 4.55908C18.1812 2.55621 16.9706 0.855751 15.1214 0.227309C14.6137 0.0546573 14.0976 -0.0183667 13.5794 0.00389338C14.3578 0.580485 14.867 1.23064 15.1976 1.85881C15.2034 1.86207 15.2095 1.86451 15.2151 1.86804C16.6724 2.7427 16.9013 4.00203 16.7679 5.6205H14.7413C14.7421 5.55209 14.7434 5.48423 14.7445 5.4169C14.7493 5.16308 14.7535 4.92338 14.735 4.67906L14.7315 4.63481C14.6995 4.21594 14.6667 3.78296 14.564 3.36924C14.0391 1.251 12.043 -0.159529 9.82189 0.0231674C7.7736 0.187675 6.01989 1.95871 5.82933 4.05388C5.79439 4.43882 5.80313 4.81914 5.81265 5.22118C5.81583 5.36071 5.81901 5.50133 5.82059 5.64439L2.10885 5.64412C1.38339 5.64412 1.17351 5.84962 1.13301 6.59995C1.05573 8.02134 0.972886 9.44219 0.889779 10.8628L0.108471 24.2226C0.0698292 24.8804 0.0309226 25.5382 0.00127951 26.1962C-0.00957199 26.4362 0.0486556 26.6284 0.173845 26.7674C0.302739 26.911 0.494096 26.9881 0.742887 26.9967C0.816201 26.9992 0.889514 27 0.963093 27C1.00279 27 1.04249 26.9997 1.08193 26.9995L19.2447 26.9992C20.5628 26.9989 21.8811 26.9992 23.1989 26.9965C23.4715 26.9959 23.679 26.9194 23.8156 26.7693C23.9548 26.6161 24.0156 26.3908 23.9966 26.099C23.973 25.7404 23.9537 25.3813 23.9341 25.0221Z" fill="#111C26"/>
</g>
</svg>
