<svg width="200" height="200" viewBox="0 0 200 200" fill="none" xmlns="http://www.w3.org/2000/svg">
<mask id="mask0_0_4952" style="mask-type:alpha" maskUnits="userSpaceOnUse" x="0" y="0" width="47" height="59">
<path fill-rule="evenodd" clip-rule="evenodd" d="M0 0H46.3724V58.6324H0V0Z" fill="white"/>
</mask>
<g mask="url(#mask0_0_4952)">
<path fill-rule="evenodd" clip-rule="evenodd" d="M46.3277 52.3046C46.6797 55.2343 44.9215 57.9293 42.2266 58.6324L33.7887 47.3828L29.6871 16.523C29.3352 13.8281 26.875 11.7187 23.9453 11.7187H5.85938C2.57773 11.7187 0 9.14097 0 5.85933C0 2.57769 2.57773 -4.57764e-05 5.85938 -4.57764e-05H23.9453C32.6172 -4.57764e-05 39.8828 6.21128 41.2887 14.7656L46.3277 52.3046Z" fill="#0D70B2"/>
</g>
<path fill-rule="evenodd" clip-rule="evenodd" d="M188.281 171.094C188.281 174.375 185.703 176.953 182.422 176.953H53.1248C43.3978 176.953 35.5466 169.102 35.5466 159.375C35.5466 149.648 43.3978 141.797 53.1248 141.797L58.0462 141.329L66.2494 146.836L63.788 152.578L53.7099 153.516C49.8423 153.516 47.2646 156.094 47.2646 159.375C47.2646 162.657 49.8423 165.235 53.124 165.235H182.421C185.703 165.234 188.281 167.812 188.281 171.094" fill="#0D70B2"/>
<path fill-rule="evenodd" clip-rule="evenodd" d="M196.718 77.3829L189.687 127.852C188.281 135.938 181.836 141.914 173.867 142.617L117.578 147.773L64.6085 152.578H63.0851C54.296 152.578 46.9132 146.484 45.6241 137.812L38.3589 82.4219L48.203 73.1645C48.789 73.8676 49.2573 74.8047 49.3745 75.7422L57.2261 136.055C57.578 138.984 60.5077 141.094 63.5546 140.859L75.9765 139.688L70.703 77.0309C70.4683 73.8672 72.8124 71.0551 76.094 70.7032C79.2577 70.3512 82.0698 72.8125 82.4218 76.0942L87.6952 138.633L111.719 136.406V76.5625C111.719 73.5157 113.946 71.0551 116.875 70.7032H117.578C120.86 70.7032 123.437 73.2809 123.437 76.5625V135.352L147.734 133.242L153.125 75.9766C153.477 72.8121 156.407 70.3512 159.57 70.7032C162.735 71.0551 165.078 73.8676 164.844 77.1485L159.57 132.07L172.812 130.898C175.507 130.664 177.734 128.672 178.204 125.977L185.117 75.7422C185.469 72.5778 188.398 70.3512 191.68 70.7032C194.843 71.1715 197.07 74.2188 196.718 77.3829" fill="#18A7FC"/>
<path fill-rule="evenodd" clip-rule="evenodd" d="M196.718 77.3829L189.687 127.852C188.281 135.938 181.836 141.914 173.867 142.617L117.578 147.773V70.7032C120.859 70.7032 123.437 73.2809 123.437 76.5625V135.352L147.734 133.242L153.125 75.9766C153.476 72.8121 156.406 70.3512 159.57 70.7032C162.734 71.0551 165.078 73.8676 164.843 77.1485L159.57 132.07L172.812 130.898C175.507 130.664 177.733 128.672 178.203 125.977L185.117 75.7422C185.469 72.5778 188.398 70.3512 191.68 70.7032C194.843 71.1715 197.07 74.2188 196.718 77.3829" fill="#1689FC"/>
<path fill-rule="evenodd" clip-rule="evenodd" d="M198.515 49.2575C197.344 47.9684 195.703 47.2657 194.062 47.2657H33.7888L38.3591 82.4219H195.899L199.922 53.9453C200.156 52.3047 199.569 50.5473 198.515 49.2575" fill="#18A7FC"/>
<path fill-rule="evenodd" clip-rule="evenodd" d="M199.921 53.9453L195.898 82.4219H117.578V47.2657H194.062C195.703 47.2657 197.344 47.9688 198.515 49.2575C199.569 50.5473 200.156 52.3047 199.921 53.9453" fill="#1689FC"/>
<path fill-rule="evenodd" clip-rule="evenodd" d="M188.281 171.094C188.281 174.375 185.703 176.953 182.422 176.953H117.578V165.234H182.422C185.703 165.234 188.281 167.812 188.281 171.094" fill="#095C92"/>
<path fill-rule="evenodd" clip-rule="evenodd" d="M147.265 200C137.572 200 129.687 192.505 129.687 182.812C129.687 173.12 137.572 165.234 147.265 165.234C156.958 165.234 164.844 173.12 164.844 182.812C164.844 192.505 156.958 200 147.265 200" fill="#1689FC"/>
<path fill-rule="evenodd" clip-rule="evenodd" d="M147.265 188.672C144.033 188.672 141.406 186.045 141.406 182.812C141.406 179.58 144.033 176.953 147.265 176.953C150.498 176.953 153.125 179.58 153.125 182.812C153.125 186.045 150.498 188.672 147.265 188.672" fill="#A8AFF1"/>
<path fill-rule="evenodd" clip-rule="evenodd" d="M76.5623 200C66.8693 200 58.9841 192.505 58.9841 182.812C58.9841 173.12 66.8693 165.234 76.5623 165.234C86.2552 165.234 94.1404 173.12 94.1404 182.812C94.1404 192.505 86.2556 200 76.5623 200" fill="#18A7FC"/>
<path fill-rule="evenodd" clip-rule="evenodd" d="M76.5623 188.672C73.3294 188.672 70.7029 186.045 70.7029 182.812C70.7029 179.58 73.3294 176.953 76.5623 176.953C79.7951 176.953 82.4216 179.58 82.4216 182.812C82.4216 186.045 79.7955 188.672 76.5623 188.672" fill="#C5C9F7"/>
</svg>
