<svg width="290" height="290" viewBox="0 0 290 290" fill="none" xmlns="http://www.w3.org/2000/svg">
<path fill-rule="evenodd" clip-rule="evenodd" d="M144.516 42.0968H60.6115V23.3871C60.6115 13.05 68.9553 4.67742 79.2568 4.67742H125.87V23.3871C125.87 33.7242 134.214 42.0968 144.516 42.0968" fill="#969FAA"/>
<path fill-rule="evenodd" clip-rule="evenodd" d="M228.42 23.3871V42.0968H144.516C149.643 42.0968 154.305 39.9919 157.707 36.6242C161.064 33.2097 163.161 28.5323 163.161 23.3871V4.67742H209.775C220.076 4.67742 228.42 13.05 228.42 23.3871" fill="#969FAA"/>
<path fill-rule="evenodd" clip-rule="evenodd" d="M228.42 229.194V266.613C228.42 276.95 220.076 285.323 209.774 285.323H79.2568C68.9553 285.323 60.6115 276.95 60.6115 266.613V229.194H228.42Z" fill="#969FAA"/>
<path fill-rule="evenodd" clip-rule="evenodd" d="M97.9022 252.581V261.935C97.9022 264.508 95.8046 266.613 93.2409 266.613H83.9182C81.3544 266.613 79.2568 264.508 79.2568 261.935V252.581C79.2568 250.008 81.3544 247.903 83.9182 247.903H93.2409C95.8046 247.903 97.9022 250.008 97.9022 252.581" fill="#E6E9ED"/>
<path fill-rule="evenodd" clip-rule="evenodd" d="M163.161 252.581V261.935C163.161 264.508 161.064 266.613 158.5 266.613H130.532C127.968 266.613 125.87 264.508 125.87 261.935V252.581C125.87 250.008 127.968 247.903 130.532 247.903H158.5C161.064 247.903 163.161 250.008 163.161 252.581" fill="#E6E9ED"/>
<path fill-rule="evenodd" clip-rule="evenodd" d="M209.775 252.581V261.935C209.775 264.508 207.677 266.613 205.113 266.613H195.79C193.227 266.613 191.129 264.508 191.129 261.935V252.581C191.129 250.008 193.227 247.903 195.79 247.903H205.113C207.677 247.903 209.775 250.008 209.775 252.581" fill="#E6E9ED"/>
<path fill-rule="evenodd" clip-rule="evenodd" d="M125.87 4.67742H163.161V23.3871C163.161 28.5323 161.064 33.2097 157.707 36.6242C154.305 39.9919 149.643 42.0968 144.516 42.0968C134.214 42.0968 125.87 33.7242 125.87 23.3871V4.67742Z" fill="#FCD770"/>
<mask id="mask0_0_3623" style="mask-type:alpha" maskUnits="userSpaceOnUse" x="0" y="0" width="290" height="290">
<path fill-rule="evenodd" clip-rule="evenodd" d="M0 290H289.017V0H0V290Z" fill="white"/>
</mask>
<g mask="url(#mask0_0_3623)">
<path fill-rule="evenodd" clip-rule="evenodd" d="M60.6115 229.194H228.42V42.0968H60.6115V229.194Z" fill="#69D6F4"/>
<path fill-rule="evenodd" clip-rule="evenodd" d="M164.979 73.0145C166.797 76.3354 167.822 80.1241 167.822 84.1935C167.822 97.1032 157.381 107.581 144.516 107.581C131.65 107.581 121.209 97.1032 121.209 84.1935C121.209 71.2838 131.65 60.8064 144.516 60.8064C153.326 60.8064 161.017 65.7177 164.979 73.0145" fill="#FF826E"/>
<path fill-rule="evenodd" clip-rule="evenodd" d="M107.225 145C112.352 145 116.548 149.21 116.548 154.355C116.548 156.927 115.522 159.266 113.797 160.95C112.119 162.681 109.789 163.71 107.225 163.71C112.352 163.71 116.548 167.919 116.548 173.065C116.548 175.637 115.522 177.976 113.797 179.66C112.119 181.39 109.789 182.419 107.225 182.419H97.9022C103.03 182.419 107.225 186.629 107.225 191.774C107.225 194.347 106.199 196.685 104.475 198.369C102.797 200.1 100.466 201.129 97.9022 201.129H60.6114H46.6274C40.5677 201.129 34.6944 199.165 29.8466 195.516L18.6593 187.097H4.67529L4.86175 112.258H18.6593L40.9406 101.173C44.8095 99.2081 49.0513 98.2258 53.3864 98.2258H60.6114H72.5445C77.066 98.2258 81.5875 97.15 85.6429 95.1387L96.5038 89.6661C97.5293 89.1516 98.6946 88.871 99.86 88.871C104.055 88.871 107.411 92.2387 107.411 96.4484V96.8694C107.411 113.147 94.313 126.29 78.1381 126.29H163.161C168.289 126.29 172.484 130.5 172.484 135.645C172.484 138.218 171.458 140.556 169.734 142.24C168.055 143.971 165.725 145 163.161 145H107.225Z" fill="#F0D0B4"/>
<path fill-rule="evenodd" clip-rule="evenodd" d="M284.356 98.2258V173.065C284.356 178.21 280.161 182.419 275.033 182.419H228.42H200.452C195.324 182.419 191.129 178.21 191.129 173.065V98.2258C191.129 93.0806 195.324 88.871 200.452 88.871H219.097V116.935H237.743H256.388V88.871H275.033C280.161 88.871 284.356 93.0806 284.356 98.2258" fill="#D3A06C"/>
<path fill-rule="evenodd" clip-rule="evenodd" d="M228.42 88.871H256.388V116.935H237.743H219.097V88.871H228.42Z" fill="#B27946"/>
<path fill-rule="evenodd" clip-rule="evenodd" d="M130.532 261.935V252.581H158.5L158.509 261.935H130.532ZM158.5 243.226H130.532C125.39 243.226 121.209 247.421 121.209 252.581V261.935C121.209 267.095 125.39 271.29 130.532 271.29H158.5C163.641 271.29 167.822 267.095 167.822 261.935V252.581C167.822 247.421 163.641 243.226 158.5 243.226V243.226Z" fill="black"/>
<path fill-rule="evenodd" clip-rule="evenodd" d="M83.9181 261.935V252.581H93.2408L93.2502 261.935H83.9181ZM93.2408 243.226H83.9181C78.7767 243.226 74.5955 247.421 74.5955 252.581V261.935C74.5955 267.095 78.7767 271.29 83.9181 271.29H93.2408C98.3823 271.29 102.564 267.095 102.564 261.935V252.581C102.564 247.421 98.3823 243.226 93.2408 243.226V243.226Z" fill="black"/>
<path fill-rule="evenodd" clip-rule="evenodd" d="M195.79 261.935V252.581H205.113L205.122 261.935H195.79ZM205.113 243.226H195.79C190.649 243.226 186.468 247.421 186.468 252.581V261.935C186.468 267.095 190.649 271.29 195.79 271.29H205.113C210.255 271.29 214.436 267.095 214.436 261.935V252.581C214.436 247.421 210.255 243.226 205.113 243.226V243.226Z" fill="black"/>
<path fill-rule="evenodd" clip-rule="evenodd" d="M144.516 18.7097C147.09 18.7097 149.177 20.804 149.177 23.3871C149.177 25.9702 147.09 28.0645 144.516 28.0645C141.941 28.0645 139.854 25.9702 139.854 23.3871C139.854 20.804 141.941 18.7097 144.516 18.7097" fill="black"/>
<path fill-rule="evenodd" clip-rule="evenodd" d="M279.695 173.065C279.695 175.646 277.606 177.742 275.033 177.742H200.452C197.879 177.742 195.791 175.646 195.791 173.065V98.2258C195.791 95.6439 197.879 93.5484 200.452 93.5484H214.436V121.613H261.049V93.5484H275.033C277.606 93.5484 279.695 95.6439 279.695 98.2258V173.065ZM223.759 224.516H65.2728V205.806H97.9022C105.612 205.806 111.886 199.511 111.886 191.774C111.886 189.927 111.509 188.173 110.861 186.554C116.804 184.936 121.209 179.533 121.209 173.065C121.209 169.458 119.806 166.198 117.573 163.71C119.811 161.221 121.209 157.961 121.209 154.355C121.209 152.708 120.873 151.146 120.351 149.677H163.161C170.871 149.677 177.145 143.382 177.145 135.645C177.145 127.909 170.871 121.613 163.161 121.613H101.361C107.938 115.34 112.077 106.435 112.082 96.439C112.082 89.6895 106.605 84.1935 99.8787 84.1935C97.9955 84.1935 96.103 84.6426 94.4202 85.4845L83.5546 90.9337C80.1472 92.6456 76.3389 93.5484 72.5352 93.5484H65.2728V46.7742H223.759V84.1935H200.452C192.742 84.1935 186.468 90.4894 186.468 98.2258V173.065C186.468 180.801 192.742 187.097 200.452 187.097H223.759V224.516ZM209.775 280.645H79.2569C71.547 280.645 65.2728 274.349 65.2728 266.613V233.871H223.759V266.613C223.759 274.349 217.484 280.645 209.775 280.645V280.645ZM32.6434 191.774L20.2116 182.419H9.35066L9.51847 116.935H19.7501L43.0196 105.34C46.2219 103.75 49.8065 102.903 53.3817 102.903H72.5305C77.7745 102.903 83.0279 101.654 87.7219 99.3016L98.5875 93.8524C100.405 92.945 102.759 94.2734 102.759 96.8834C102.755 110.523 91.698 121.613 78.1148 121.613H70.1299H60.8073V130.968H70.1299H78.1148H163.161C165.734 130.968 167.822 133.063 167.822 135.645C167.822 138.227 165.734 140.323 163.161 140.323H107.225H88.5795V149.677H107.225C109.798 149.677 111.886 151.773 111.886 154.355C111.886 156.937 109.798 159.032 107.225 159.032H88.5795V168.387H107.225C109.798 168.387 111.886 170.483 111.886 173.065C111.886 175.646 109.798 177.742 107.225 177.742H97.9022H88.5795V187.097H97.9022C100.475 187.097 102.564 189.192 102.564 191.774C102.564 194.356 100.475 196.452 97.9022 196.452H46.6274C41.6165 196.452 36.6475 194.791 32.6434 191.774V191.774ZM79.2569 9.35484H121.209V23.3871C121.209 28.6726 123.032 33.4997 125.992 37.4194H65.2728V23.3871C65.2728 15.6506 71.547 9.35484 79.2569 9.35484V9.35484ZM130.532 23.3871V9.35484H158.5V23.3871C158.5 31.1235 152.226 37.4194 144.516 37.4194C136.806 37.4194 130.532 31.1235 130.532 23.3871V23.3871ZM223.759 23.3871V37.4194H163.04C166 33.4997 167.822 28.6726 167.822 23.3871V9.35484H209.775C217.484 9.35484 223.759 15.6506 223.759 23.3871V23.3871ZM233.081 102.903V112.258H223.759V93.5484H251.727V112.258H242.404V102.903H233.081ZM275.033 84.1936H233.081V23.3871C233.081 10.4915 222.626 0 209.775 0H79.2569C66.4055 0 55.9501 10.4915 55.9501 23.3871V93.5484H53.3817C48.3708 93.5484 43.3552 94.7318 38.8756 96.9629L17.5686 107.581H0.223745L0 191.774H17.1071L27.0498 199.258C32.6574 203.482 39.6075 205.806 46.6274 205.806H55.9501V266.613C55.9501 279.509 66.4055 290 79.2569 290H209.775C222.626 290 233.081 279.509 233.081 266.613V187.097H275.033C282.743 187.097 289.017 180.801 289.017 173.065V98.2258C289.017 90.4894 282.743 84.1936 275.033 84.1936V84.1936Z" fill="black"/>
<path fill-rule="evenodd" clip-rule="evenodd" d="M242.404 168.387H251.727V159.032H242.404V168.387Z" fill="black"/>
<path fill-rule="evenodd" clip-rule="evenodd" d="M261.049 168.387H270.372V159.032H261.049V168.387Z" fill="black"/>
<path fill-rule="evenodd" clip-rule="evenodd" d="M163.161 84.1936C163.161 94.5119 154.799 102.903 144.516 102.903C134.233 102.903 125.87 94.5119 125.87 84.1936C125.87 73.8752 134.233 65.4839 144.516 65.4839C150.356 65.4839 155.507 68.2435 158.929 72.4719L144.516 86.9345L138.489 80.8866L131.897 87.5005L144.516 100.162L162.909 81.7052C163.021 82.5284 163.161 83.3423 163.161 84.1936V84.1936ZM165.585 65.7926C160.453 59.885 152.92 56.129 144.516 56.129C129.091 56.129 116.548 68.716 116.548 84.1936C116.548 99.6711 129.091 112.258 144.516 112.258C159.94 112.258 172.484 99.6711 172.484 84.1936C172.484 80.606 171.785 77.1868 170.559 74.0295L185.102 59.436L178.511 52.8221L165.585 65.7926Z" fill="black"/>
<path fill-rule="evenodd" clip-rule="evenodd" d="M130.532 196.452H177.145V187.097H130.532V196.452Z" fill="black"/>
<path fill-rule="evenodd" clip-rule="evenodd" d="M130.532 215.161H177.145V205.806H130.532V215.161Z" fill="black"/>
</g>
</svg>
