<svg width="22" height="15" viewBox="0 0 22 15" fill="none" xmlns="http://www.w3.org/2000/svg">
    <mask id="5l8aglegla" style="mask-type:alpha" maskUnits="userSpaceOnUse" x="0" y="0" width="22" height="15">
        <path fill-rule="evenodd" clip-rule="evenodd" d="M0 .567h21.926v13.679H0V.567z" fill="#fff"/>
    </mask>
    <g mask="url(#5l8aglegla)">
        <path fill-rule="evenodd" clip-rule="evenodd" d="M10.143 2.009c.091-.265.4-.473.774-.501.407-.03.77.181.903.5h-1.677zM2.708 13.203c.02-.003.055-.002.08-.002l9.703.002c2.248 0 4.496 0 6.744-.003h.001a.39.39 0 0 1 .083.006.269.269 0 0 1 0 .098.551.551 0 0 1-.074.003l-1.295-.002H3.137l-.086.001h-.268c-.023 0-.055 0-.074-.002a.227.227 0 0 1-.004-.05c0-.026.001-.042.003-.051zm17.24-1.032c-.002.039-.007.057-.006.059a.29.29 0 0 1-.098.008c-2.132-.007-4.264-.01-6.396-.013l-1.103-.002H2.87c-.25 0-.534 0-.815.015-.03.002-.048 0-.056 0h-.005a.244.244 0 0 1-.01-.067c-.112-2.956 1.022-5.41 3.372-7.293 1.298-1.042 2.838-1.675 4.577-1.885 3.63-.436 7.355 1.522 9.057 4.764.709 1.349 1.03 2.834.958 4.414zm1.9.18c-.057-.06-.138-.09-.247-.085-.093.003-.185.002-.277 0a5.473 5.473 0 0 0-.416.006h-.036a.326.326 0 0 1-.009-.097l.001-.182c.003-.46.005-.934-.047-1.4-.216-1.916-1.016-3.659-2.38-5.179-1.487-1.659-3.332-2.739-5.481-3.21-.102-.022-.13-.042-.156-.15-.207-.865-.977-1.487-1.837-1.487h-.022c-.824.01-1.592.667-1.784 1.527-.013.058-.015.066-.09.082-2.273.487-4.18 1.61-5.67 3.337C1.701 7.48.916 9.74 1.063 12.231v.036h-.018c-.212-.003-.425-.003-.637-.003L0 12.263v.952l.152-.001c.144-.002.289-.002.433-.003.353 0 .718-.001 1.078-.014h.03c.07 0 .093.009.093.01.001.002.01.025.002.091A.81.81 0 0 0 2 13.93a.944.944 0 0 0 .693.316h.018c.813-.018 1.64-.014 2.439-.011.333.001.669 0 1 .003 4.406 0 8.812 0 13.217-.002a.875.875 0 0 0 .897-.886c0-.055 0-.11.003-.145.036-.003.095-.003.149-.003h.46l.667-.001c.048 0 .096-.004.152-.007l.228-.014v-.288c-.002-.1-.003-.194.002-.287.002-.04.01-.165-.076-.254z" fill="#111C26"/>
    </g>
    <path fill-rule="evenodd" clip-rule="evenodd" d="M15.072 4.86a6.34 6.34 0 0 0-.391-.232l-.184-.104-.137-.08L14 5.4l.181.107c.04.024.073.045.107.063a7.159 7.159 0 0 1 2.253 1.97c.686.912 1.194 2.001 1.506 3.24.122.482.209.587.56.495.049-.013.104-.03.164-.05a.319.319 0 0 0 .2-.164.4.4 0 0 0 .009-.273c-.032-.114-.061-.23-.09-.346a10.787 10.787 0 0 0-.191-.682c-.698-2.13-1.918-3.78-3.627-4.9z" fill="#111C26"/>
</svg>
