<svg width="20" height="19" viewBox="0 0 20 19" fill="none" xmlns="http://www.w3.org/2000/svg">
    <mask id="oi1kmo7tza" style="mask-type:alpha" maskUnits="userSpaceOnUse" x="0" y="-1" width="20" height="20">
        <path fill-rule="evenodd" clip-rule="evenodd" d="M0-.002h20v19H0v-19z" fill="#fff"/>
    </mask>
    <g mask="url(#oi1kmo7tza)">
        <path fill-rule="evenodd" clip-rule="evenodd" d="M16.5 10.14c-.989 1.2-2.423 2.417-4.239 3.958-.595.505-1.208 1.025-1.854 1.586a234.338 234.338 0 0 0-1.733-1.486c-1.838-1.566-3.29-2.804-4.286-4.016-1.022-1.244-1.451-2.344-1.394-3.565.095-2.02 1.602-3.614 3.43-3.628h.026c1.911 0 2.886 1.626 3.297 2.598a.716.716 0 0 0 1.32 0c.41-.972 1.385-2.598 3.296-2.598h.027c1.833.015 3.401 1.642 3.495 3.628.057 1.206-.37 2.293-1.386 3.524zm2.373-3.57a4.957 4.957 0 0 0-1.349-3.176c-.843-.89-1.953-1.385-3.127-1.394-1.12-.008-2.108.4-2.934 1.217-.47.464-.814.992-1.056 1.454A5.931 5.931 0 0 0 9.35 3.217C8.524 2.4 7.537 1.992 6.416 2c-1.172.01-2.272.506-3.098 1.398A5.016 5.016 0 0 0 2.006 6.57c-.147 3.12 2.31 5.213 6.027 8.38.653.558 1.33 1.134 2.048 1.763l.326.285.325-.285c.763-.667 1.478-1.274 2.17-1.861 3.683-3.127 6.117-5.192 5.97-8.282z" fill="#fff"/>
    </g>
</svg>
