<svg width="19" height="17" viewBox="0 0 19 17" fill="none" xmlns="http://www.w3.org/2000/svg">
    <mask id="khbat3q37a" style="mask-type:alpha" maskUnits="userSpaceOnUse" x="0" y="0" width="19" height="17">
        <path fill-rule="evenodd" clip-rule="evenodd" d="M0 .495h18.884v15.56H0V.496z" fill="#fff"/>
    </mask>
    <g mask="url(#khbat3q37a)">
        <path fill-rule="evenodd" clip-rule="evenodd" d="M5.628 1.611c-.51 0-1.025.095-1.532.286A4.548 4.548 0 0 0 1.153 6.05C1.067 9.253 4.07 12.444 9.4 14.83c5.362-2.333 8.395-5.487 8.332-8.678a4.616 4.616 0 0 0-2.99-4.232c-1.722-.658-3.519-.218-4.93 1.205l-.415.419-.414-.419c-.988-.996-2.158-1.514-3.354-1.514zm3.765 14.444-.233-.101c-3.172-1.388-5.574-3.026-7.14-4.87C.655 9.478-.043 7.726.003 6.022A5.667 5.667 0 0 1 3.68.853C5.63.115 7.732.533 9.396 1.962 11.066.53 13.185.122 15.162.877c2.214.846 3.674 2.908 3.72 5.254.073 3.712-3.3 7.293-9.255 9.825l-.234.1z" fill="#111C26"/>
    </g>
    <path fill-rule="evenodd" clip-rule="evenodd" d="m15.115 10.175-.698-.792c1.265-1.267 1.789-2.674 1.476-3.963-.241-.99-.984-1.788-1.893-2.033l.25-1.054c1.284.346 2.292 1.424 2.63 2.815.238.979.325 2.934-1.765 5.027z" fill="#111C26"/>
</svg>
