<svg width="31" height="27" viewBox="0 0 31 27" fill="none" xmlns="http://www.w3.org/2000/svg">
<path fill-rule="evenodd" clip-rule="evenodd" d="M16 13.3853C15.2362 13.3853 14.6148 12.7636 14.6148 12.0001C14.6148 11.2364 15.2362 10.6147 16 10.6147C16.7638 10.6147 17.3852 11.2364 17.3852 12.0001C17.3852 12.7636 16.7638 13.3853 16 13.3853ZM16 9C14.3459 9 13 10.3459 13 12.0001C13 13.6541 14.3459 15 16 15C17.6541 15 19 13.6541 19 12.0001C19 10.3459 17.6541 9 16 9Z" fill="#111C26"/>
<path fill-rule="evenodd" clip-rule="evenodd" d="M1.78107 11C1.93086 11 2.08221 10.9569 2.21588 10.8666L15.7446 1.72825L28.7785 10.698C28.9135 10.7907 29.0671 10.835 29.219 10.835C29.4676 10.835 29.7121 10.716 29.8632 10.4947C30.1068 10.1382 30.0163 9.65089 29.6611 9.40634L16.1901 0.135895C15.9085 -0.0580278 15.5465 -0.0379309 15.2867 0.154948C15.2742 0.162517 15.2609 0.167215 15.249 0.175306L1.3447 9.56737C0.987125 9.80906 0.892466 10.2956 1.13302 10.6542C1.28359 10.8789 1.53012 11 1.78107 11Z" fill="#111C26"/>
<mask id="mask0_0_1946" style="mask-type:alpha" maskUnits="userSpaceOnUse" x="0" y="3" width="31" height="24">
<path fill-rule="evenodd" clip-rule="evenodd" d="M0 3.24982H30.8463V27H0V3.24982Z" fill="white"/>
</mask>
<g mask="url(#mask0_0_1946)">
<path fill-rule="evenodd" clip-rule="evenodd" d="M25.8583 25.382H19.0664V16.6994H15.4222H15.2045H11.5603V25.382H4.76814V12.5183L15.509 5.0354L25.8583 12.381V25.382ZM13.1233 25.382V18.3174H15.2045H15.4222H17.5034V25.382H15.2508H13.1233ZM30.5067 13.7183L15.9552 3.39019C15.6674 3.18578 15.2967 3.21167 15.0354 3.42201C15.0179 3.43252 14.9994 3.4398 14.9825 3.45167L0.345296 13.649C-0.0128968 13.8987 -0.10772 14.4013 0.133246 14.7718C0.284338 15.0043 0.531036 15.1292 0.782422 15.1292C0.932473 15.1292 1.08409 15.0847 1.21799 14.9916L3.20511 13.6072V27H12.3418H15.2508H27.4213V13.4901L29.6228 15.0528C29.758 15.1488 29.9117 15.1947 30.0641 15.1947C30.3132 15.1947 30.5581 15.0717 30.7094 14.843C30.9535 14.4747 30.8626 13.9712 30.5067 13.7183Z" fill="#111C26"/>
</g>
</svg>
