<svg width="215" height="200" viewBox="0 0 215 200" fill="none" xmlns="http://www.w3.org/2000/svg">
<path fill-rule="evenodd" clip-rule="evenodd" d="M207.143 50H171.429V21.4286C171.429 9.59375 181.022 0 192.857 0C204.692 0 214.286 9.59375 214.286 21.4286V42.8571C214.286 46.8022 211.088 50 207.143 50Z" fill="#289BC3"/>
<path fill-rule="evenodd" clip-rule="evenodd" d="M42.8572 178.571C42.8572 190.406 33.2634 200 21.4286 200H150C161.835 200 171.429 190.406 171.429 178.571V21.4286C171.429 9.59375 181.022 0 192.857 0H64.2857C52.4509 0 42.8572 9.59375 42.8572 21.4286V178.571Z" fill="#00D2D2"/>
<path fill-rule="evenodd" clip-rule="evenodd" d="M0 178.571C0 190.406 9.59375 200 21.4286 200H150C138.165 200 128.571 190.406 128.571 178.571V171.429C128.571 167.483 125.374 164.286 121.429 164.286H7.14286C3.19777 164.286 0 167.483 0 171.429V178.571Z" fill="#289BC3"/>
<path fill-rule="evenodd" clip-rule="evenodd" d="M150 35.7142H64.2857C60.3407 35.7142 57.1429 32.5164 57.1429 28.5713C57.1429 24.6262 60.3407 21.4285 64.2857 21.4285H150C153.945 21.4285 157.143 24.6262 157.143 28.5713C157.143 32.5164 153.945 35.7142 150 35.7142Z" fill="#289BC3"/>
<path fill-rule="evenodd" clip-rule="evenodd" d="M150 71.4285H64.2857C60.3407 71.4285 57.1429 68.2308 57.1429 64.2857C57.1429 60.3406 60.3407 57.1428 64.2857 57.1428H150C153.945 57.1428 157.143 60.3406 157.143 64.2857C157.143 68.2308 153.945 71.4285 150 71.4285Z" fill="#289BC3"/>
<path fill-rule="evenodd" clip-rule="evenodd" d="M150 107.143H64.2857C60.3407 107.143 57.1429 103.945 57.1429 100C57.1429 96.0549 60.3407 92.8572 64.2857 92.8572H150C153.945 92.8572 157.143 96.0549 157.143 100C157.143 103.945 153.945 107.143 150 107.143Z" fill="#289BC3"/>
<path fill-rule="evenodd" clip-rule="evenodd" d="M150 142.857H64.2857C60.3407 142.857 57.1429 139.659 57.1429 135.714C57.1429 131.769 60.3407 128.572 64.2857 128.572H150C153.945 128.572 157.143 131.769 157.143 135.714C157.143 139.659 153.945 142.857 150 142.857Z" fill="#289BC3"/>
<path fill-rule="evenodd" clip-rule="evenodd" d="M50 42.8572C77.6143 42.8572 100 65.2429 100 92.8572C100 120.471 77.6143 142.857 50 142.857C22.3857 142.857 0 120.471 0 92.8572C0 65.2429 22.3857 42.8572 50 42.8572Z" fill="#FF6E91"/>
<path fill-rule="evenodd" clip-rule="evenodd" d="M63.6906 70.8335C57.5447 70.8335 52.2701 74.5598 50 79.8755C47.7299 74.5598 42.4554 70.8335 36.3094 70.8335C28.0911 70.8335 21.4286 77.4955 21.4286 85.7143C21.4286 110.714 50 122.619 50 122.619C50 122.619 78.5714 110.714 78.5714 85.7143C78.5714 77.4955 71.9089 70.8335 63.6906 70.8335Z" fill="#D7E6F0"/>
</svg>
