<svg width="19" height="22" viewBox="0 0 19 22" fill="none" xmlns="http://www.w3.org/2000/svg">
    <mask id="i187kl0x4a" style="mask-type:alpha" maskUnits="userSpaceOnUse" x="0" y="0" width="19" height="22">
        <path fill-rule="evenodd" clip-rule="evenodd" d="M0 .097h18.877V22H0V.097z" fill="#fff"/>
    </mask>
    <g mask="url(#i187kl0x4a)">
        <path fill-rule="evenodd" clip-rule="evenodd" d="M11.584 19.775a2.123 2.123 0 0 0-1.52-1.918v-1.035c4.583.078 7.313.99 7.555 1.506-.214.455-2.372 1.222-6.035 1.447zM1.258 18.328c.242-.516 2.972-1.428 7.554-1.506v1.035a2.123 2.123 0 0 0-1.519 1.918c-3.663-.225-5.821-.992-6.035-1.447zm2.62-9.335.001-.031c0-3.022 2.496-5.48 5.564-5.48s5.564 2.458 5.564 5.48l.36 7.16c-1.901-.4-4.207-.54-5.929-.54-1.72 0-4.026.14-5.928.54l.369-7.129zm5.56-7.662c.225 0 .407.18.407.4 0 .22-.182.4-.407.4a.404.404 0 0 1-.407-.4c0-.22.183-.4.407-.4zm9.439 16.997c0-.85-.916-1.456-2.238-1.878l-.38-7.504c-.006-3.187-2.281-5.857-5.315-6.531a1.6 1.6 0 0 0 .154-.684c0-.901-.745-1.634-1.66-1.634-.915 0-1.66.733-1.66 1.634 0 .245.058.477.156.686-3.03.677-5.3 3.345-5.307 6.529l-.388 7.504C.916 16.872 0 17.477 0 18.328c0 1.825 4.208 2.523 7.63 2.698A2.155 2.155 0 0 0 9.439 22c.759 0 1.425-.389 1.808-.974 3.422-.175 7.63-.873 7.63-2.698z" fill="#111C26"/>
    </g>
    <path fill-rule="evenodd" clip-rule="evenodd" d="m12.985 14-.204-4.628c0-.648-.195-1.275-.55-1.766-.87-1.2-2.218-1.624-2.231-1.628L10.293 5c.068.02 1.682.52 2.759 2.006.479.66.743 1.496.745 2.354L14 13.955 12.985 14z" fill="#111C26"/>
</svg>
