<svg width="25" height="27" viewBox="0 0 25 27" fill="none" xmlns="http://www.w3.org/2000/svg">
<path fill-rule="evenodd" clip-rule="evenodd" d="M6.65923 7.10363C6.86848 4.01688 9.44695 1.64511 12.4963 1.64511C12.6288 1.64511 12.7618 1.6495 12.8961 1.65855C14.4561 1.76441 15.8816 2.47144 16.91 3.64937C17.9385 4.8273 18.4464 6.33543 18.3408 7.89568C18.2349 9.45564 17.5279 10.8812 16.35 11.9097C15.1721 12.9381 13.6643 13.4463 12.1041 13.3405C10.5439 13.2346 9.1184 12.5279 8.08997 11.3497C7.06155 10.172 6.55337 8.66359 6.65923 7.10363ZM11.9928 14.9824C12.1661 14.9942 12.3389 15 12.5114 15C14.3233 15 16.0541 14.3528 17.4322 13.1496C18.9414 11.8318 19.8469 10.0055 19.9824 8.00702C20.1179 6.00825 19.4671 4.07639 18.1496 2.56716C16.8321 1.0582 15.0059 0.152336 13.0072 0.0168541C8.88309 -0.258225 5.29732 2.86665 5.01758 6.99228C4.88211 8.99105 5.53289 10.9229 6.85038 12.4321C8.16786 13.9414 9.99407 14.8467 11.9928 14.9824Z" fill="#111C26"/>
<mask id="mask0_0_1876" style="mask-type:alpha" maskUnits="userSpaceOnUse" x="0" y="17" width="25" height="10">
<path fill-rule="evenodd" clip-rule="evenodd" d="M0.00012207 17.0721H24.8629V27H0.00012207V17.0721Z" fill="white"/>
</mask>
<g mask="url(#mask0_0_1876)">
<path fill-rule="evenodd" clip-rule="evenodd" d="M23.038 24.4521C22.015 25.4308 17.6823 25.4263 13.4963 25.42L13.2556 25.4197V22.4108L17.1295 19.3871C20.8199 20.57 23.2147 22.88 23.2147 24.0468C23.2147 24.215 23.1636 24.3323 23.038 24.4521ZM11.3666 25.42C7.17869 25.4284 2.84792 25.4308 1.82485 24.4521C1.69957 24.3323 1.64847 24.215 1.64847 24.0468C1.64847 22.9571 3.73776 20.8705 7.0199 19.6355L11.6073 22.4663V25.4197L11.3666 25.42ZM15.1512 18.8947L12.3748 21.0618L9.07155 19.0234C10.1174 18.7892 11.2438 18.651 12.4314 18.651C13.3806 18.651 14.2902 18.74 15.1512 18.8947ZM21.0759 19.4205C18.5479 17.906 15.4779 17.0721 12.4314 17.0721C9.38529 17.0721 6.31496 17.906 3.78694 19.4205C1.41551 20.8408 0.00012207 22.5705 0.00012207 24.0468C0.00012207 24.63 0.228419 25.1563 0.660012 25.5695C2.16661 27.0108 6.0254 27.0071 11.3688 26.9989L12.4314 26.9981L13.4941 26.9989C13.8523 26.9995 14.204 27 14.5487 27C19.3435 27 22.7974 26.9139 24.2029 25.5695C24.6347 25.1563 24.863 24.63 24.863 24.0468C24.863 22.5705 23.4474 20.8408 21.0759 19.4205Z" fill="#111C26"/>
</g>
</svg>
