<svg width="200" height="200" viewBox="0 0 200 200" fill="none" xmlns="http://www.w3.org/2000/svg">
<path fill-rule="evenodd" clip-rule="evenodd" d="M104.834 135.593H105.085C112.573 135.593 118.644 129.522 118.644 122.034H77.9662V122.203C88.6272 123.088 98.095 128.078 104.834 135.593Z" fill="#2E2E2E"/>
<mask id="mask0_0_5039" style="mask-type:alpha" maskUnits="userSpaceOnUse" x="0" y="0" width="200" height="200">
<path fill-rule="evenodd" clip-rule="evenodd" d="M0 200H200V0H0V200Z" fill="white"/>
</mask>
<g mask="url(#mask0_0_5039)">
<path fill-rule="evenodd" clip-rule="evenodd" d="M3.38977 122.034H118.644V44.0679H3.38977V122.034Z" fill="#E3E3E3"/>
<path fill-rule="evenodd" clip-rule="evenodd" d="M61.0169 122.034H3.38983C1.51864 122.034 0 123.553 0 125.424V132.203C0 134.075 1.51864 135.593 3.38983 135.593H30.7593C38.2068 127.288 48.9831 122.034 61.0169 122.034Z" fill="#2E2E2E"/>
<path fill-rule="evenodd" clip-rule="evenodd" d="M67.7966 186.441C73.4135 186.441 77.9661 181.888 77.9661 176.271H57.6271C57.6271 181.888 62.1796 186.441 67.7966 186.441Z" fill="#E3E3E3"/>
<path fill-rule="evenodd" clip-rule="evenodd" d="M67.7966 186.441C62.1796 186.441 57.6271 181.888 57.6271 176.271H44.0677C44.0677 189.376 54.6915 200 67.7966 200C80.9016 200 91.5254 189.376 91.5254 176.271H77.9661C77.9661 181.888 73.4135 186.441 67.7966 186.441Z" fill="#2E2E2E"/>
<path fill-rule="evenodd" clip-rule="evenodd" d="M172.881 186.441C167.264 186.441 162.712 181.888 162.712 176.271H149.153C149.153 189.376 159.776 200 172.881 200C185.986 200 196.61 189.376 196.61 176.271H183.051C183.051 181.888 178.498 186.441 172.881 186.441Z" fill="#2E2E2E"/>
<path fill-rule="evenodd" clip-rule="evenodd" d="M172.881 186.441C178.498 186.441 183.051 181.888 183.051 176.271H162.712C162.712 181.888 167.264 186.441 172.881 186.441Z" fill="#E3E3E3"/>
<path fill-rule="evenodd" clip-rule="evenodd" d="M132.203 74.5764V81.356C132.203 83.2272 133.722 84.7458 135.593 84.7458H149.153V71.1865H135.593C133.722 71.1865 132.203 72.7052 132.203 74.5764Z" fill="#2E2E2E"/>
<path fill-rule="evenodd" clip-rule="evenodd" d="M115.254 176.271H149.153V162.712H115.254V176.271Z" fill="#F35142"/>
<path fill-rule="evenodd" clip-rule="evenodd" d="M74.5763 122.034H61.017C48.9831 122.034 38.2068 127.288 30.7593 135.593C24.3017 142.793 20.339 152.278 20.339 162.712V176.271H33.8983V169.492C33.8983 150.77 49.0746 135.593 67.7966 135.593C86.5186 135.593 101.695 150.77 101.695 169.492V176.271H115.254V162.712C115.254 140.247 97.0407 122.034 74.5763 122.034Z" fill="#F35142"/>
<path fill-rule="evenodd" clip-rule="evenodd" d="M67.7966 135.593C49.0746 135.593 33.8983 150.77 33.8983 169.492V176.271H101.695V169.492C101.695 150.77 86.5187 135.593 67.7966 135.593Z" fill="#F35142"/>
<path fill-rule="evenodd" clip-rule="evenodd" d="M181.356 120.339C169.742 112.949 162.712 100.139 162.712 86.3764V74.5764V71.1865H149.153V176.271H200V154.302C200 140.539 192.97 127.729 181.356 120.339Z" fill="#F35142"/>
<path fill-rule="evenodd" clip-rule="evenodd" d="M183.051 91.5255V57.6272C173.692 57.6272 162.712 65.217 162.712 74.5763C162.712 83.9357 173.692 91.5255 183.051 91.5255Z" fill="#F35142"/>
<path fill-rule="evenodd" clip-rule="evenodd" d="M181.356 120.339C169.742 112.949 162.712 100.139 162.712 86.3764V74.5764V71.1865H152.542V74.5764V86.3764C152.542 100.139 159.573 112.949 171.186 120.339C182.8 127.729 189.83 140.539 189.83 154.302V176.271H200V154.302C200 140.539 192.969 127.729 181.356 120.339Z" fill="#E34636"/>
<path fill-rule="evenodd" clip-rule="evenodd" d="M163.196 71.1865C162.882 72.2814 162.712 73.4136 162.712 74.5764C162.712 83.9357 173.692 91.5255 183.051 91.5255V84.7458C174.851 84.7458 165.413 78.9221 163.196 71.1865Z" fill="#E34636"/>
<path fill-rule="evenodd" clip-rule="evenodd" d="M67.7966 129.491C43.4576 129.491 23.7288 149.221 23.7288 173.559V176.271H33.8983V169.491C33.8983 150.77 49.0745 135.593 67.7966 135.593C86.5186 135.593 101.695 150.77 101.695 169.491V176.271H111.864V173.559C111.864 149.221 92.1355 129.491 67.7966 129.491Z" fill="#E34636"/>
<path fill-rule="evenodd" clip-rule="evenodd" d="M67.7966 135.593C66.6508 135.593 65.522 135.654 64.4067 135.763C81.5356 137.464 94.9152 151.912 94.9152 169.492V176.271H101.695V169.492C101.695 150.77 86.5186 135.593 67.7966 135.593Z" fill="#FF7F73"/>
<path fill-rule="evenodd" clip-rule="evenodd" d="M105.085 33.8983H98.3051C98.3051 18.9458 86.139 6.77966 71.1864 6.77966H13.5593V0H71.1864C89.878 0 105.085 15.2068 105.085 33.8983Z" fill="#47648F"/>
<path fill-rule="evenodd" clip-rule="evenodd" d="M88.1356 33.8983H81.3559C81.3559 26.4203 75.2746 20.339 67.7966 20.339H47.4576V13.5593H67.7966C79.0136 13.5593 88.1356 22.6814 88.1356 33.8983Z" fill="#47648F"/>
<path fill-rule="evenodd" clip-rule="evenodd" d="M33.8983 20.339H40.678V13.5593H33.8983V20.339Z" fill="#47648F"/>
<path fill-rule="evenodd" clip-rule="evenodd" d="M0 6.77966H6.77966V0H0V6.77966Z" fill="#47648F"/>
<path fill-rule="evenodd" clip-rule="evenodd" d="M20.339 20.339H27.1187V13.5593H20.339V20.339Z" fill="#47648F"/>
<path fill-rule="evenodd" clip-rule="evenodd" d="M101.695 108.474H20.3389C18.4677 108.474 16.9491 106.956 16.9491 105.085C16.9491 103.213 18.4677 101.695 20.3389 101.695H101.695C103.566 101.695 105.085 103.213 105.085 105.085C105.085 106.956 103.566 108.474 101.695 108.474Z" fill="#47648F"/>
<path fill-rule="evenodd" clip-rule="evenodd" d="M64.3728 61.1865C64.3762 61.1288 64.4067 61.078 64.4067 61.017V57.6271C64.4067 55.7559 62.8881 54.2373 61.0169 54.2373C59.1457 54.2373 57.6271 55.7559 57.6271 57.6271V61.017C57.6271 61.078 57.6576 61.1288 57.661 61.1865C38.6677 62.8915 23.7288 78.878 23.7288 98.3051V105.085H98.305V98.3051C98.305 78.878 83.3661 62.8915 64.3728 61.1865Z" fill="#47648F"/>
<path fill-rule="evenodd" clip-rule="evenodd" d="M39.017 84.6273L39.0068 84.6239C37.2306 83.5968 36.7085 81.1934 38.0136 79.6104C41.6679 75.1595 46.8475 72.1697 52.5255 71.2307C54.5492 70.8951 56.3695 72.5494 56.3695 74.6036V74.6138C56.3695 76.2782 55.1526 77.6544 53.5153 77.9392C49.539 78.6239 45.9119 80.7155 43.3289 83.8205C42.2611 85.0985 40.4577 85.4612 39.017 84.6273Z" fill="white"/>
<path fill-rule="evenodd" clip-rule="evenodd" d="M20.339 101.695H101.695V98.3052H20.339V101.695Z" fill="#384E70"/>
</g>
</svg>
