<svg width="27" height="28" viewBox="0 0 27 28" fill="none" xmlns="http://www.w3.org/2000/svg">
<path fill-rule="evenodd" clip-rule="evenodd" d="M18.5513 14.3739C19.5659 11.2455 18.8317 7.84907 16.6355 5.51035C15.1156 3.89131 13.0948 3 10.9458 3C8.79612 3 6.77535 3.89131 5.25547 5.51035C4.91484 5.87313 4.91484 6.46176 5.25547 6.82455C5.5961 7.18764 6.14907 7.18764 6.4897 6.82455C7.67971 5.55682 9.26241 4.85883 10.9458 4.85883C12.6288 4.85883 14.2112 5.55682 15.4015 6.82455C17.1215 8.65643 17.6963 11.3167 16.9016 13.767C16.7443 14.2521 16.986 14.7813 17.4415 14.9489C17.5361 14.9836 17.6321 15 17.7266 15C18.0885 15 18.4265 14.7584 18.5513 14.3739Z" fill="#111C26"/>
<mask id="mask0_0_1860" style="mask-type:alpha" maskUnits="userSpaceOnUse" x="0" y="0" width="27" height="28">
<path fill-rule="evenodd" clip-rule="evenodd" d="M0 0.25293H26.7483V27.125H0V0.25293Z" fill="white"/>
</mask>
<g mask="url(#mask0_0_1860)">
<path fill-rule="evenodd" clip-rule="evenodd" d="M24.8867 25.2549C24.5984 25.5445 24.1894 25.5445 23.9713 25.5193C23.5314 25.4677 23.0724 25.2299 22.7113 24.8675L17.8823 20.0158C18.2097 19.7544 18.5271 19.4741 18.8299 19.1699C19.1325 18.8659 19.4115 18.5468 19.6717 18.2179L24.501 23.0692C24.8618 23.432 25.0984 23.8934 25.1498 24.3351C25.1752 24.5542 25.1749 24.9653 24.8867 25.2549ZM4.34945 18.0418C0.66686 14.3422 0.66686 8.32202 4.34945 4.62239C6.19074 2.77257 8.60936 1.84766 11.0282 1.84766C13.4469 1.84766 15.8655 2.77257 17.7065 4.62239C21.3894 8.32202 21.3894 14.3422 17.7068 18.0418C14.0242 21.7409 8.03204 21.7415 4.34945 18.0418ZM26.7274 24.15C26.6337 23.3463 26.2419 22.5619 25.6239 21.9412L20.5815 16.8754C23.0165 12.6378 22.4339 7.11523 18.8299 3.49431H18.8297C14.5279 -0.827877 7.52804 -0.827344 3.2263 3.49431C-1.07543 7.81622 -1.07543 14.8482 3.2263 19.1699C5.3773 21.3309 8.20277 22.4113 11.028 22.4113C12.9368 22.4113 14.8448 21.9162 16.5458 20.9298L21.5882 25.9956C22.2062 26.6165 22.9869 27.0101 23.7865 27.104C23.907 27.1183 24.0261 27.125 24.1439 27.125C24.8657 27.125 25.5317 26.8636 26.0098 26.383C26.5659 25.8246 26.8275 25.0105 26.7274 24.15Z" fill="#111C26"/>
</g>
</svg>
